PathFileType	4	(X/Y/Z)	C:\Users\dbl\Desktop\20210112\20210112\bx_n_0_503.trc
DataRate	CameraRate	NumFrames	NumMarkers	Units	OrigDataRate	OrigDataStartFrame	OrigNumFrames
50.00	50.00	       4	43	mm	50.00	292	       333
Frame#	Time	Top.Head			R.Acromium			L.Acromium			Sternum			R.ASIS			L.ASIS			V.Sacral			R.Thigh.Upper			R.Thigh.Front			R.Thigh.Rear			R.Knee.Lat			R.Knee.Med			R.Shank.Upper			R.Shank.Front			R.Shank.Rear			R.Ankle.Lat			R.Midfoot.Lat			R.Toe.Lat			R.Toe.Tip			R.Toe.Med			R.Ankle.Med			R.Midfoot.Sup			R.Heel			L.Thigh.Upper			L.Thigh.Front			L.Thigh.Rear			L.Knee.Lat			L.Knee.Med			L.Shank.Upper			L.Shank.Front			L.Shank.Rear			L.Ankle.Lat			L.Midfoot.Lat			L.Toe.Lat			L.Toe.Tip			L.Toe.Med			L.Ankle.Med			L.Midfoot.Sup			L.Heel			origin1 front left			origin2 front right			origin 3 back right			origin 4 back leftt			
		X1	Y1	Z1	X2	Y2	Z2	X3	Y3	Z3	X4	Y4	Z4	X5	Y5	Z5	X6	Y6	Z6	X7	Y7	Z7	X8	Y8	Z8	X9	Y9	Z9	X10	Y10	Z10	X11	Y11	Z11	X12	Y12	Z12	X13	Y13	Z13	X14	Y14	Z14	X15	Y15	Z15	X16	Y16	Z16	X17	Y17	Z17	X18	Y18	Z18	X19	Y19	Z19	X20	Y20	Z20	X21	Y21	Z21	X22	Y22	Z22	X23	Y23	Z23	X24	Y24	Z24	X25	Y25	Z25	X26	Y26	Z26	X27	Y27	Z27	X28	Y28	Z28	X29	Y29	Z29	X30	Y30	Z30	X31	Y31	Z31	X32	Y32	Z32	X33	Y33	Z33	X34	Y34	Z34	X35	Y35	Z35	X36	Y36	Z36	X37	Y37	Z37	X38	Y38	Z38	X39	Y39	Z39	X40	Y40	Z40	X41	Y41	Z41	X42	Y42	Z42	X43	Y43	Z43	

292	5.820	-711.40753	101.07383	1853.02502	-680.13416	-81.41632	1538.35095	-705.53442	280.46463	1534.49927	-580.24249	106.26772	1358.12366	-583.65747	-4.95391	1053.64966	-597.97485	240.68071	1066.24915	-791.13538	91.89761	1060.68250	-650.85535	-73.67847	872.49408	-578.73602	-3.87803	803.03699	-674.59985	-61.92992	757.76752	-702.08405	-37.29046	616.11414	-689.52106	71.73428	574.27991	-710.37592	-34.79680	569.24420	-662.87714	13.56309	519.62762	-755.19818	-46.71981	489.86093	-759.83246	-20.77224	207.28967	-648.42346	-67.72839	162.07068	-606.27386	-72.04169	158.22783	-549.39911	-24.06982	163.75874	-600.67102	28.30217	167.74196	-720.21466	69.02781	217.17752	-675.83453	52.27977	160.04257	-793.94775	37.83096	174.76225	-679.86206	285.96567	873.95447	-583.31494	221.82399	793.42029	-686.62610	270.44452	743.63702	-722.15350	253.38943	641.82782	-687.43188	143.63312	575.27417	-721.05756	247.54115	576.02863	-670.04883	204.26685	533.78021	-760.62970	258.86481	502.03943	-764.61761	227.76793	205.81042	-652.48041	291.71106	156.92709	-615.30975	297.70932	158.67657	-552.72449	243.16988	165.92024	-589.06799	207.82635	174.31778	-714.66779	150.43619	217.44920	-675.26672	166.71573	158.11256	-795.43347	180.34497	184.80249	-528.27643	304.07770	146.48262	-517.65057	-73.06789	143.47559	-875.88794	-78.73437	141.24525	-882.52496	296.15234	144.67007	
293	5.840	-712.43103	100.58684	1852.97852	-680.93396	-81.84141	1538.10010	-706.19745	280.10580	1534.33777	-580.00098	105.96275	1358.38647	-582.65662	-5.20455	1053.48682	-597.01160	240.36104	1066.19238	-790.06451	91.57608	1060.64758	-649.86163	-73.93613	872.35474	-578.08081	-3.57870	802.85760	-673.80322	-62.09904	757.60779	-701.61816	-37.54895	616.02972	-689.38452	71.59645	574.22034	-709.91150	-34.93642	569.10254	-662.69263	13.45049	519.52698	-754.93506	-47.00330	489.82849	-759.82770	-20.85034	207.28384	-648.40033	-67.74232	162.06992	-606.23657	-72.02289	158.25786	-549.40161	-24.09036	163.85075	-600.68060	28.36776	167.72014	-720.31757	68.87384	217.06735	-675.81781	52.27037	160.03749	-793.97528	37.75345	174.80069	-678.99725	285.76038	873.90717	-582.55591	221.51634	793.29309	-685.93304	270.30334	743.52374	-721.62195	253.22723	641.86389	-686.98242	143.44962	575.04749	-720.49261	247.27017	575.98755	-669.70233	204.08174	533.68970	-760.16980	258.60550	501.97787	-764.56128	227.70988	205.85365	-652.51776	291.71103	156.96422	-615.31818	297.67441	158.69127	-552.69135	243.15167	165.94458	-589.02844	207.78770	174.32292	-714.66132	150.39806	217.37393	-675.28699	166.66122	158.09430	-795.40607	180.31058	184.79837	-528.23853	304.11221	146.53120	-517.68054	-73.05610	143.41655	-875.86945	-78.70996	141.24251	-882.50391	296.11340	144.64627	
294	5.860	-713.36169	100.09166	1852.92896	-681.71765	-82.22539	1537.85364	-706.81525	279.79483	1534.21143	-579.78235	105.70762	1358.60547	-581.60962	-5.47896	1053.31104	-595.99390	240.07935	1066.07581	-789.00458	91.26740	1060.68506	-648.92743	-74.22778	872.29309	-577.56854	-3.43223	802.58246	-673.08832	-62.30993	757.45874	-701.15143	-37.77895	615.95605	-689.24976	71.45459	574.13287	-709.48853	-35.15841	569.01862	-662.49249	13.29597	519.44348	-754.72412	-47.30079	489.81009	-759.82886	-20.89366	207.27289	-648.39075	-67.76027	162.04366	-606.19348	-72.01772	158.27473	-549.42487	-24.09525	163.88809	-600.67645	28.40026	167.71182	-720.42950	68.71481	216.96620	-675.79071	52.25692	160.04202	-793.98981	37.69071	174.83081	-678.21478	285.61459	873.93054	-581.86523	221.27490	793.18262	-685.29901	270.21503	743.43945	-721.19220	253.06987	641.89209	-686.18719	143.29379	574.87646	-720.00073	247.03615	575.98358	-669.37158	203.90294	533.59442	-759.76740	258.36465	502.00214	-764.52710	227.65511	205.87683	-652.54639	291.72607	156.99774	-615.34912	297.65234	158.70195	-552.67419	243.14655	165.94583	-589.03247	207.73158	174.29155	-714.63110	150.37462	217.33710	-675.27277	166.64729	158.08299	-795.34674	180.26898	184.76053	-528.18665	304.10992	146.52911	-517.70337	-73.02476	143.35652	-875.87640	-78.71067	141.24358	-882.48016	296.08899	144.63739	
295	5.880	-714.20380	99.56513	1852.86401	-682.45557	-82.54226	1537.60620	-707.40173	279.55972	1534.12463	-579.54712	105.48524	1358.79980	-580.53650	-5.71925	1053.19250	-594.92975	239.83389	1065.91650	-788.02014	90.96669	1060.77917	-648.05365	-74.53922	872.26190	-577.09125	-3.49891	802.26483	-672.41144	-62.55296	757.33014	-700.72705	-37.96019	615.86041	-689.13141	71.31107	574.05737	-709.13446	-35.42996	568.97198	-662.26086	13.10511	519.39459	-754.56146	-47.58509	489.82660	-759.84021	-20.92210	207.26343	-648.40503	-67.77139	161.99417	-606.15991	-72.00343	158.26138	-549.43671	-24.08489	163.88969	-600.64313	28.40794	167.68922	-720.53632	68.57165	216.93520	-675.77844	52.25293	160.05443	-793.99994	37.66927	174.82898	-677.46393	285.49466	873.98010	-581.26672	221.09528	793.01398	-684.71918	270.12247	743.37891	-720.77240	252.87546	641.87830	-685.28931	143.13811	574.79883	-719.61310	246.88162	576.02466	-669.03040	203.72481	533.46655	-759.46063	258.22409	502.13159	-764.49884	227.60147	205.90282	-652.54254	291.74026	157.01425	-615.37402	297.63516	158.71548	-552.67230	243.14972	165.94098	-589.08093	207.65373	174.20651	-714.60522	150.36511	217.30327	-675.20966	166.66449	158.05994	-795.29346	180.21542	184.73659	-528.13037	304.06577	146.46797	-517.70630	-72.97813	143.32188	-875.90057	-78.73034	141.24860	-882.46802	296.08572	144.64302	
